# xmcd
#
# Track frame offsets:
#	150
#	23092
#	37465
#	56800
#	70082
#	99850
#	115300
#	137292
#	152450
#	188525
#	220412
#	241337
#	254387
#	276450
#
# Disc length: 4082
#
# Revision: 2
# Processed by: cddbd v1.5.1PL0 Copyright (c) Steve Scherf et al.
# Submitted via: CDex 1.51
# Normalized: r0:DSETVAR1,TSWAP
#
DISCID=c50ff00e
DTITLE=Various Artist - Monochrome disc 6
DYEAR=1950
DGENRE=Jazz
TTITLE0=Ella Fitzgerald - Mack the Knife
TTITLE1=Billie Holiday - Willow Weep for Me
TTITLE2=Anita O'day - Sweet Georgia Brown
TTITLE3=Mel Torme - On the Street Where You Live
TTITLE4=Ella Gitzgerald and Louis Armstrong - April in Paris
TTITLE5=Charlie Parker - Lover Man
TTITLE6=Dizzy Gillespie - Jessica's Day
TTITLE7=Stan Getz - Thanks for the Memory
TTITLE8=Stan Getz and J.J. Johnson - Crazy Rhythm
TTITLE9=Buddy DeFranco - But not for Me
TTITLE10=Oscar Peterson - Tonight
TTITLE11=Bud Powell - Yesterdays
TTITLE12=Bill evans with Jeremy Steig - What's New
TTITLE13=Gil Evans - Las Vegas Tango
EXTD=YEAR: 1950
EXTT0=
EXTT1=
EXTT2=
EXTT3=
EXTT4=
EXTT5=
EXTT6=
EXTT7=
EXTT8=
EXTT9=
EXTT10=
EXTT11=
EXTT12=
EXTT13=
PLAYORDER=
